<mxfile host="app.diagrams.net" modified="2023-11-06T11:31:43.741Z" agent="Mozilla/5.0 (Windows NT 10.0; Win64; x64) AppleWebKit/537.36 (KHTML, like Gecko) Chrome/110.0.0.0 Safari/537.36 OPR/96.0.0.0" version="22.0.8" etag="9N5-Pk3TytzGbJwA-Ahz" type="github">
  <diagram name="Page-1" id="XPHYP3vNoN7eixGxko08">
    <mxGraphModel>
      <root>
        <mxCell id="0" />
        <mxCell id="1" parent="0" />
      </root>
    </mxGraphModel>
  </diagram>
</mxfile>
